HIERARCHY
ROOT Hips
{
	OFFSET 0.00000 0.00000 0.00000
	CHANNELS 6 Xposition Yposition Zposition Zrotation Yrotation Xrotation 
	JOINT LHipJoint
	{
		OFFSET 0 0 0
		CHANNELS 3 Zrotation Yrotation Xrotation
		JOINT LeftUpLeg
		{
			OFFSET 1.56857 -1.73443 1.15205
			CHANNELS 3 Zrotation Yrotation Xrotation
			JOINT LeftLeg
			{
				OFFSET 2.39362 -6.57643 0.00000
				CHANNELS 3 Zrotation Yrotation Xrotation
				JOINT LeftFoot
				{
					OFFSET 2.50952 -6.89485 0.00000
					CHANNELS 3 Zrotation Yrotation Xrotation
					JOINT LeftToeBase
					{
						OFFSET 0.17171 -0.47178 1.88682
						CHANNELS 3 Zrotation Yrotation Xrotation
						End Site
						{
							OFFSET 0.00000 -0.00000 0.98146
						}
					}
				}
			}
		}
	}
	JOINT RHipJoint
	{
		OFFSET 0 0 0
		CHANNELS 3 Zrotation Yrotation Xrotation
		JOINT RightUpLeg
		{
			OFFSET -1.28153 -1.73443 1.15205
			CHANNELS 3 Zrotation Yrotation Xrotation
			JOINT RightLeg
			{
				OFFSET -2.26861 -6.23296 0.00000
				CHANNELS 3 Zrotation Yrotation Xrotation
				JOINT RightFoot
				{
					OFFSET -2.54143 -6.98254 0.00000
					CHANNELS 3 Zrotation Yrotation Xrotation
					JOINT RightToeBase
					{
						OFFSET -0.23309 -0.64041 1.93119
						CHANNELS 3 Zrotation Yrotation Xrotation
						End Site
						{
							OFFSET -0.00000 -0.00000 1.02013
						}
					}
				}
			}
		}
	}
	JOINT LowerBack
	{
		OFFSET 0 0 0
		CHANNELS 3 Zrotation Yrotation Xrotation
		JOINT Spine
		{
			OFFSET -0.07096 2.10460 -0.27878
			CHANNELS 3 Zrotation Yrotation Xrotation
			JOINT Spine1
			{
				OFFSET -0.00826 2.13662 -0.08279
				CHANNELS 3 Zrotation Yrotation Xrotation
				JOINT Neck
				{
					OFFSET 0 0 0
					CHANNELS 3 Zrotation Yrotation Xrotation
					JOINT Neck1
					{
						OFFSET 0.03239 1.77799 0.24435
						CHANNELS 3 Zrotation Yrotation Xrotation
						JOINT Head
						{
							OFFSET 0.01026 1.74194 -0.49664
							CHANNELS 3 Zrotation Yrotation Xrotation
							End Site
							{
								OFFSET 0.00170 1.83057 -0.19653
							}
						}
					}
				}
				JOINT LeftShoulder
				{
					OFFSET 0 0 0
					CHANNELS 3 Zrotation Yrotation Xrotation
					JOINT LeftArm
					{
						OFFSET 3.19178 1.35907 -0.31412
						CHANNELS 3 Zrotation Yrotation Xrotation
						JOINT LeftForeArm
						{
							OFFSET 4.85247 -0.00000 -0.00000
							CHANNELS 3 Zrotation Yrotation Xrotation
							JOINT LeftHand
							{
								OFFSET 3.55584 -0.00000 0.00000
								CHANNELS 3 Zrotation Yrotation Xrotation
								JOINT LeftFingerBase
								{
									OFFSET 0 0 0
									CHANNELS 3 Zrotation Yrotation Xrotation
									JOINT LeftHandIndex1
									{
										OFFSET 0.69320 -0.00000 0.00000
										CHANNELS 3 Zrotation Yrotation Xrotation
										End Site
										{
											OFFSET 0.55888 -0.00000 0.00000
										}
									}
								}
								JOINT LThumb
								{
									OFFSET 0 0 0
									CHANNELS 3 Zrotation Yrotation Xrotation
									End Site
									{
										OFFSET 0.56741 -0.00000 0.56741
									}
								}
							}
						}
					}
				}
				JOINT RightShoulder
				{
					OFFSET 0 0 0
					CHANNELS 3 Zrotation Yrotation Xrotation
					JOINT RightArm
					{
						OFFSET -3.28999 1.24191 -0.26899
						CHANNELS 3 Zrotation Yrotation Xrotation
						JOINT RightForeArm
						{
							OFFSET -4.64462 -0.00000 0.00000
							CHANNELS 3 Zrotation Yrotation Xrotation
							JOINT RightHand
							{
								OFFSET -3.40703 -0.00000 0.00000
								CHANNELS 3 Zrotation Yrotation Xrotation
								JOINT RightFingerBase
								{
									OFFSET 0 0 0
									CHANNELS 3 Zrotation Yrotation Xrotation
									JOINT RightHandIndex1
									{
										OFFSET -0.61958 -0.00000 0.00000
										CHANNELS 3 Zrotation Yrotation Xrotation
										End Site
										{
											OFFSET -0.49952 -0.00000 0.00000
										}
									}
								}
								JOINT RThumb
								{
									OFFSET 0 0 0
									CHANNELS 3 Zrotation Yrotation Xrotation
									End Site
									{
										OFFSET -0.50715 -0.00000 0.50715
									}
								}
							}
						}
					}
				}
			}
		}
	}
}
MOTION
Frames: 9
Frame Time: .0083333
45.7837 16.2747 -1.1143 352.6050 98.9401 337.9550 0.0000 0.0000 0.0000 -15.0246 5.0600 -8.1347 10.1685 17.5035 60.0499 0.1281 -8.7908 -8.3487 0.2267 -3.0650 -8.4599 0.0000 0.0000 0.0000 18.8284 -0.1685 -10.0732 -2.9247 -10.5721 30.8499 -0.2569 -4.8294 -12.5809 -1.5395 -7.8326 22.2067 -3.9362 0.1529 17.3180 0.2573 -0.0938 5.6132 2.5131 0.0921 -3.6731 -0.6792 -1.0598 -23.4845 3.6265 -2.1265 23.3536 1.1183 -0.4699 11.5720 -0.0000 -0.0000 0.0000 -76.2553 -8.0704 56.1741 94.8656 -59.9104 -64.2125 -0.0000 0.0000 -4.9914 38.6093 -31.4275 -22.6060 -7.1250 0.0000 -0.0000 3.8635 -7.9681 -4.3710 -0.0000 -0.0000 0.0000 62.1477 -43.3188 46.2795 -54.9069 54.7925 -30.1399 0.0000 -0.0000 -17.7306 -32.4990 -27.7498 16.5212 7.1250 -0.0000 -0.0000 -2.6499 -61.9168 1.0909
45.9029 16.3239 -1.1109 357.1820 98.8911 342.2680 0.0000 0.0000 0.0000 -14.0923 5.0387 -7.9129 9.9296 17.3701 59.2529 0.1969 -8.4241 -9.2157 0.3199 -3.6359 -10.0545 0.0000 0.0000 0.0000 19.7879 -0.4876 -8.8290 -2.7611 -10.2980 29.9471 -0.2665 -4.9777 -12.8622 -1.4892 -7.7094 21.8348 -3.2753 0.0066 17.4823 0.3811 -0.1840 5.4925 2.2885 0.0510 -3.8888 -0.5479 -1.0158 -23.3242 3.7531 -2.1451 23.6554 1.1446 -0.4410 11.6584 -0.0000 -0.0000 0.0000 -76.8349 -6.4665 55.7517 91.9720 -59.9853 -61.7077 -0.0000 0.0000 -4.7860 38.5767 -30.9471 -22.3023 -7.1250 0.0000 -0.0000 3.9669 -7.4276 -4.4565 -0.0000 -0.0000 0.0000 62.7147 -41.3305 45.6718 -53.5967 54.3470 -29.0723 0.0000 -0.0000 -16.2204 -30.2793 -27.8326 15.2485 7.1250 -0.0000 -0.0000 0.1214 -61.4202 -0.0485
46.0280 16.3818 -1.1235 354.8410 98.9224 340.0620 0.0000 0.0000 0.0000 -14.6080 5.1035 -7.8389 9.5655 17.1582 58.0260 0.2863 -7.6494 -10.2076 0.3904 -4.0123 -11.1113 0.0000 0.0000 0.0000 19.3866 -0.6684 -7.9284 -2.6039 -10.0243 29.0556 -0.2724 -4.8739 -12.8677 -1.4714 -7.6652 21.7019 -3.5411 0.0099 17.1420 0.1776 -0.2424 5.3267 2.2345 0.0176 -3.8802 -0.3271 -0.8936 -23.1551 3.8117 -2.0654 23.8794 1.1461 -0.3704 11.7090 0.0000 -0.0000 0.0000 -77.3328 -4.8675 55.3084 88.9303 -59.9957 -59.0736 -0.0000 0.0000 -4.7123 38.2748 -29.8577 -21.4459 -7.1250 0.0000 -0.0000 4.0685 -6.1137 -4.4895 0.0000 -0.0000 0.0000 63.4333 -39.3691 44.8979 -52.4860 53.9502 -28.1720 0.0000 -0.0000 -14.7312 -28.6690 -26.9822 13.9328 7.1250 -0.0000 -0.0000 1.7185 -60.0970 -0.6331
46.1474 16.4402 -1.1433 354.4500 98.8014 339.7460 0.0000 0.0000 0.0000 -14.7486 5.1479 -7.6700 9.1600 16.9096 56.6420 0.3654 -6.9901 -11.1041 0.3718 -3.9167 -10.8424 0.0000 0.0000 0.0000 19.3479 -0.8975 -7.0669 -2.4590 -9.7629 28.2124 -0.2655 -4.7410 -12.6459 -1.4226 -7.5426 21.3332 -3.4350 -0.0121 16.8464 0.0926 -0.2630 5.1990 2.0873 0.0031 -3.8599 -0.2167 -0.8074 -23.0426 3.8561 -1.9933 24.0596 1.1589 -0.3167 11.7547 -0.0000 -0.0000 0.0000 -77.8333 -3.4147 54.8743 85.8074 -59.9335 -56.3699 -0.0000 0.0000 -4.9391 37.6179 -27.9563 -19.8626 -7.1250 0.0000 -0.0000 4.1446 -3.7645 -4.4191 -0.0000 -0.0000 0.0000 64.1952 -37.4157 43.9425 -51.5432 53.5992 -27.4114 0.0000 -0.0000 -13.3668 -27.4339 -25.5860 12.6358 7.1250 -0.0000 -0.0000 2.6151 -58.3071 -0.8516
46.2457 16.5021 -1.1496 358.3800 98.8281 343.6610 0.0000 0.0000 0.0000 -14.1214 4.8452 -7.5239 8.7715 16.6584 55.2964 0.4418 -6.8488 -12.0530 0.2732 -3.3619 -9.2879 0.0000 0.0000 0.0000 20.0164 -1.3334 -6.3331 -2.3302 -9.5225 27.4439 -0.2567 -4.8050 -12.5575 -1.4555 -7.6256 21.5826 -2.8248 -0.1407 16.9019 0.2469 -0.3444 4.9761 1.9220 -0.0375 -4.1277 -0.1233 -0.7607 -22.8748 3.6760 -1.9067 24.3068 1.0936 -0.2877 11.8117 0.0000 0.0000 0.0000 -78.3708 -1.8083 54.5219 82.9318 -59.8104 -53.8827 -0.0000 0.0000 -5.5340 36.4002 -25.9967 -17.9087 -7.1250 0.0000 -0.0000 3.8690 -1.1676 -3.9560 0.0000 0.0000 0.0000 65.0347 -35.6782 42.6796 -50.8932 53.3494 -26.8891 0.0000 -0.0000 -11.7387 -25.8765 -24.6417 11.4336 7.1250 -0.0000 -0.0000 4.0006 -56.9492 -1.1727
46.3477 16.5641 -1.1487 360.4320 98.6937 345.9030 0.0000 0.0000 0.0000 -13.7133 4.7625 -7.5608 8.3137 16.3452 53.6848 0.5212 -6.3857 -12.9478 0.2217 -3.0309 -8.3647 0.0000 0.0000 0.0000 20.4735 -1.3991 -5.6783 -2.1889 -9.2489 26.5770 -0.2538 -4.9432 -12.6276 -1.7268 -8.2722 23.5438 -2.5592 -0.1158 16.6812 0.3472 -0.2820 4.6992 1.8649 -0.0117 -4.3100 -0.1414 -0.7532 -22.6012 3.6417 -1.8713 24.3939 1.0908 -0.2766 11.7909 0.0000 0.0000 0.0000 -78.8408 -0.1524 54.1883 80.2162 -59.6352 -51.5374 -0.0000 0.0000 -6.7062 34.7389 -24.3928 -15.9809 -7.1250 0.0000 -0.0000 3.2074 1.1283 -3.1486 0.0000 0.0000 0.0000 65.9900 -34.0582 41.2598 -50.5343 53.2087 -26.6014 0.0000 -0.0000 -10.0696 -24.4681 -23.8274 10.4166 7.1250 -0.0000 -0.0000 5.2256 -55.7863 -1.3858
46.4831 16.6431 -1.1811 357.1410 97.4158 342.6680 0.0000 0.0000 0.0000 -13.8760 6.1441 -7.0146 7.5959 15.8138 51.0937 0.6000 -5.0861 -13.7905 0.4748 -4.4192 -12.2591 0.0000 0.0000 0.0000 20.3737 -1.0549 -4.4952 -2.0253 -8.9185 25.5408 -0.2447 -4.5418 -12.1357 -1.8765 -8.6040 24.5642 -2.6552 0.3346 16.0319 0.2401 0.2934 4.6596 1.6926 0.2631 -4.0337 0.0653 -0.7582 -22.7229 3.3053 -1.8625 24.6068 0.9343 -0.2932 11.8900 -0.0000 0.0000 0.0000 -79.2392 1.2676 53.7741 77.3740 -59.3890 -49.0880 -0.0000 0.0000 -8.3675 33.0921 -23.1461 -14.3683 -7.1250 0.0000 -0.0000 2.4405 2.9679 -2.3129 -0.0000 0.0000 0.0000 66.8670 -32.2951 40.0314 -50.3081 53.1190 -26.4204 0.0000 -0.0000 -8.6793 -23.4801 -22.8471 9.5737 7.1250 -0.0000 -0.0000 5.9193 -54.5550 -1.3932
46.5600 16.6929 -1.1897 360.5030 97.5410 346.1380 0.0000 0.0000 0.0000 -13.5591 5.5583 -6.8874 7.2034 15.5008 49.6396 0.6699 -5.0660 -14.5779 0.3372 -3.7319 -10.3237 0.0000 0.0000 0.0000 20.7786 -1.4925 -3.8081 -1.8654 -8.5799 24.4898 -0.2285 -4.7365 -12.0263 -1.8025 -8.4421 24.0650 -2.2910 0.2023 15.9112 0.4244 0.1843 4.6210 1.7016 0.2060 -4.0056 0.0744 -0.7651 -22.9347 3.0717 -1.8173 24.5272 0.8512 -0.3071 11.8957 -0.0000 -0.0000 0.0000 -79.7263 2.4380 53.2077 74.4522 -59.0666 -46.5774 -0.0000 0.0000 -9.9014 31.9023 -22.2968 -13.2886 -7.1250 0.0000 -0.0000 1.8535 4.2097 -1.7133 -0.0000 -0.0000 0.0000 67.6775 -30.2467 38.7608 -50.2802 53.1079 -26.3981 0.0000 -0.0000 -7.3653 -22.7142 -21.8640 8.8604 7.1250 -0.0000 -0.0000 6.3749 -53.3774 -1.3177
46.6457 16.7522 -1.2086 358.8400 97.4471 344.7990 0.0000 0.0000 0.0000 -14.0358 5.2519 -6.7596 6.7019 15.0757 47.7377 0.7236 -4.5075 -15.1796 0.3070 -3.5624 -9.8488 0.0000 0.0000 0.0000 20.4352 -1.7714 -3.3503 -1.7313 -8.2825 23.5755 -0.2175 -4.6660 -11.7740 -1.6655 -8.1316 23.1144 -2.3772 0.2768 15.6102 0.3974 0.2550 4.4021 1.7089 0.2366 -4.0791 0.0565 -0.8328 -23.0666 2.8795 -1.8566 24.6142 0.7761 -0.3510 11.9530 -0.0000 0.0000 0.0000 -80.0431 3.8910 52.8654 71.6230 -58.6847 -44.1553 -0.0000 0.0000 -11.2653 31.1756 -21.6897 -12.6046 -7.1250 0.0000 -0.0000 1.4989 5.0545 -1.3615 -0.0000 0.0000 0.0000 68.6824 -28.6694 37.2939 -50.6426 53.2514 -26.6882 0.0000 -0.0000 -5.8005 -21.9448 -21.2175 8.2962 7.1250 -0.0000 -0.0000 6.9426 -52.5601 -1.2968
